<svg xmlns="http://www.w3.org/2000/svg" xmlns:xlink="http://www.w3.org/1999/xlink" width="500" zoomAndPan="magnify" viewBox="0 0 375 374.999991" height="500" preserveAspectRatio="xMidYMid meet" version="1.0"><defs><clipPath id="id1"><path d="M 3.734375 3.734375 L 371.234375 3.734375 L 371.234375 371.234375 L 3.734375 371.234375 Z M 3.734375 3.734375 " clip-rule="nonzero"/></clipPath></defs><g clip-path="url(#id1)"><path fill="rgb(23.139954%, 3.138733%, 59.999084%)" d="M 321.449219 23.421875 L 351.546875 53.515625 L 368.515625 36.546875 L 338.421875 6.449219 Z M 111.449219 233.421875 L 141.546875 263.515625 L 263.515625 141.546875 L 233.421875 111.449219 Z M 9.960938 210.683594 L 164.285156 365.003906 C 168.308594 369.027344 173.640625 371.234375 179.332031 371.234375 C 191.070312 371.234375 200.609375 361.695312 200.609375 349.957031 C 200.609375 344.265625 198.402344 338.933594 194.378906 334.910156 L 40.058594 180.585938 C 36.03125 176.5625 30.699219 174.359375 25.007812 174.359375 C 13.269531 174.359375 3.734375 183.894531 3.734375 195.632812 C 3.734375 201.324219 5.9375 206.65625 9.960938 210.683594 Z M 289.433594 9.960938 C 285.40625 5.9375 280.074219 3.734375 274.382812 3.734375 C 262.644531 3.734375 253.109375 13.269531 253.109375 25.007812 C 253.109375 30.699219 255.3125 36.03125 259.335938 40.058594 L 334.910156 115.628906 C 338.933594 119.652344 344.265625 121.859375 349.957031 121.859375 C 361.695312 121.859375 371.234375 112.320312 371.234375 100.582031 C 371.234375 94.890625 369.027344 89.558594 365.003906 85.535156 Z M 287.84375 87.121094 L 210.683594 9.960938 C 206.65625 5.9375 201.324219 3.734375 195.632812 3.734375 C 183.894531 3.734375 174.359375 13.269531 174.359375 25.007812 C 174.359375 30.699219 176.5625 36.03125 180.585938 40.058594 L 334.910156 194.378906 C 338.933594 198.402344 344.265625 200.609375 349.957031 200.609375 C 361.695312 200.609375 371.234375 191.070312 371.234375 179.332031 C 371.234375 173.640625 369.027344 168.308594 365.003906 164.285156 Z M 9.960938 289.433594 L 85.535156 365.003906 C 89.558594 369.027344 94.890625 371.234375 100.582031 371.234375 C 112.320312 371.234375 121.859375 361.695312 121.859375 349.957031 C 121.859375 344.265625 119.652344 338.933594 115.628906 334.910156 L 40.058594 259.335938 C 36.03125 255.3125 30.699219 253.109375 25.007812 253.109375 C 13.269531 253.109375 3.734375 262.644531 3.734375 274.382812 C 3.734375 280.074219 5.9375 285.40625 9.960938 289.433594 Z M 6.449219 338.421875 L 23.421875 321.449219 L 53.515625 351.546875 L 36.546875 368.515625 L 6.449219 338.421875 " fill-opacity="1" fill-rule="nonzero"/></g></svg>